<svg xmlns="http://www.w3.org/2000/svg" width="1024" height="1024" viewBox="56.05500030517578 -41 911.8779907226562 1106" class="colorable-icon reset-top-left-margin" data-export-recolorable-svg="true" overflow="visible" xmlns:xlink="http://www.w3.org/1999/xlink" fill="rgb(0, 0, 0)" stroke="none"><g fill="none" stroke="rgb(255, 255, 255)" stroke-width="45" stroke-linecap="round" stroke-linejoin="round"><path d="M 922.465,241.301 L 922.933,311.426" data-line="nan" stroke-width="45.0" fill="none" stroke="rgb(255, 255, 255)"/><path d="M 922.877,978.732 C 921.817,986.665 918.762,996.305 913.732,1004.259 C 907.335,1010.635 900.862,1014.98 892.193,1018.442 Q 883.983,1019.819 869.17,1020.0" data-line="nan" stroke-width="45.0" fill="none" stroke="rgb(255, 255, 255)"/><path d="M 139.199,1019.78 C 130.802,1018.276 120.12,1013.346 112.518,1007.407 C 107.51,1001.01 103.274,992.517 101.415,985.012 L 101.055,960.056" data-line="nan" stroke-width="45.0" fill="none" stroke="rgb(255, 255, 255)"/><path d="M 101.181,40.914 C 102.333,32.864 106.358,23.072 113.566,14.581 C 121.731,8.861 128.753,5.867 135.927,4.319 L 168.974,4.013" data-line="nan" stroke-width="45.0" fill="none" stroke="rgb(255, 255, 255)"/><path d="M 665.094,4.0 L 682.225,4.357" data-line="nan" stroke-width="45.0" fill="none" stroke="rgb(255, 255, 255)"/><path d="M 922.465,241.301 L 682.225,4.357" data-line="0.0" stroke-width="45.0" fill="none" stroke="rgb(255, 255, 255)"/><path d="M 922.465,241.301 L 748.592,241.394" data-line="1.0" stroke-width="45.0" fill="none" stroke="rgb(255, 255, 255)"/><path d="M 250.578,314.218 L 573.861,314.481" data-line="6.0" stroke-width="45.0" fill="none" stroke="rgb(255, 255, 255)"/><path d="M 252.187,436.553 L 716.375,436.924" data-line="7.0" stroke-width="45.0" fill="none" stroke="rgb(255, 255, 255)"/><circle cx="632.4241387449648" cy="664.7173833083768" r="141.52105908668773" data-line="8.0" stroke-width="45.0" fill="none" stroke="rgb(255, 255, 255)"/><path d="M 722.395,946.825 L 720.248,776.017" data-line="9.0" stroke-width="45.0" fill="none" stroke="rgb(255, 255, 255)"/><path d="M 722.395,946.825 L 634.129,883.661" data-line="10.0" stroke-width="45.0" fill="none" stroke="rgb(255, 255, 255)"/><path d="M 634.129,883.661 L 540.144,946.733" data-line="11.0" stroke-width="45.0" fill="none" stroke="rgb(255, 255, 255)"/><path d="M 545.591,777.345 L 540.144,946.733" data-line="12.0" stroke-width="45.0" fill="none" stroke="rgb(255, 255, 255)"/><path d="M 922.933,311.426 L 922.877,978.732" data-line="13.0" stroke-width="45.0" fill="none" stroke="rgb(255, 255, 255)"/><path d="M 869.17,1020.0 L 139.199,1019.78" data-line="15.0" stroke-width="45.0" fill="none" stroke="rgb(255, 255, 255)"/><path d="M 101.055,960.056 L 101.181,40.914" data-line="17.0" stroke-width="45.0" fill="none" stroke="rgb(255, 255, 255)"/><path d="M 168.974,4.013 L 665.094,4.0" data-line="19.0" stroke-width="45.0" fill="none" stroke="rgb(255, 255, 255)"/><path d="M 562.149,787.032 L 545.591,777.345" data-line="19.0" stroke-width="45.0" fill="none" stroke="rgb(255, 255, 255)"/><path d="M 748.5962119163125,241.47037432174008 A 65.3815054271423,65.3815054271423 0 0,1 682.4013864592173,157.302743917035" data-line="20.0" stroke-width="45.0" fill="none" stroke="rgb(255, 255, 255)"/><path d="M 680.629,156.768 L 682.225,4.357" data-line="21.0" stroke-width="45.0" fill="none" stroke="rgb(255, 255, 255)"/></g></svg>