<svg xmlns="http://www.w3.org/2000/svg" width="1024" height="1024" viewBox="-28.8439998626709 -41 1081.6939697265625 1105.9929809570312" class="colorable-icon reset-top-left-margin" data-export-recolorable-svg="true" overflow="visible" xmlns:xlink="http://www.w3.org/1999/xlink" fill="rgb(0, 0, 0)" stroke="none"><g fill="none" stroke="url(&quot;#theme-accent-gradient-linear&quot;) rgb(40, 40, 47)" stroke-width="45" stroke-linecap="round" stroke-linejoin="round"><path d="M 687.983,651.641 Q 661.428,629.183 602.725,594.05" data-line="nan" stroke-width="45.0" fill="none" stroke="url(&quot;#theme-accent-gradient-linear&quot;) rgb(40, 40, 47)"/><path d="M 429.438,490.655 Q 419.881,486.372 409.393,484.047" data-line="nan" stroke-width="45.0" fill="none" stroke="url(&quot;#theme-accent-gradient-linear&quot;) rgb(40, 40, 47)"/><path d="M 687.983,651.641 Q 661.465,674.885 601.429,711.45" data-line="nan" stroke-width="45.0" fill="none" stroke="url(&quot;#theme-accent-gradient-linear&quot;) rgb(40, 40, 47)"/><path d="M 444.962,806.074 C 431.97,813.583 424.915,816.753 414.695,819.317 L 402.993,820.512" data-line="nan" stroke-width="45.0" fill="none" stroke="url(&quot;#theme-accent-gradient-linear&quot;) rgb(40, 40, 47)"/><path d="M 402.993,820.512 C 394.406,807.326 390.761,796.115 390.229,743.409" data-line="nan" stroke-width="45.0" fill="none" stroke="url(&quot;#theme-accent-gradient-linear&quot;) rgb(40, 40, 47)"/><path d="M 390.385,506.29 L 391.366,492.438" data-line="nan" stroke-width="45.0" fill="none" stroke="url(&quot;#theme-accent-gradient-linear&quot;) rgb(40, 40, 47)"/><path d="M 16.882,848.908 C 19.25,868.253 23.736,887.182 29.876,904.857 C 39.708,924.908 50.973,942.416 63.262,957.577 C 77.536,971.741 92.292,983.721 106.165,992.921 C 122.955,1001.781 139.389,1008.659 158.597,1014.609 C 175.813,1017.901 193.309,1019.67 243.193,1019.993" data-line="nan" stroke-width="45.0" fill="none" stroke="url(&quot;#theme-accent-gradient-linear&quot;) rgb(40, 40, 47)"/><path d="M 838.632,1018.595 C 855.752,1016.385 877.222,1010.782 896.327,1003.494 C 912.994,995.123 930.709,983.788 943.834,973.36 C 957.579,959.768 969.197,945.757 979.741,930.238 C 989.307,912.808 997.711,892.776 1002.379,877.09 C 1005.637,859.75 1007.41,842.264 1007.837,789.921" data-line="nan" stroke-width="45.0" fill="none" stroke="url(&quot;#theme-accent-gradient-linear&quot;) rgb(40, 40, 47)"/><path d="M 1007.844,195.145 C 1007.182,173.325 1004.276,151.466 998.412,129.352 C 991.357,112.138 979.33,90.5 966.579,72.918 C 950.746,55.789 933.314,41.235 915.731,29.67 C 898.302,20.497 880.711,13.618 859.067,7.944 C 845.972,5.798 828.62,4.261 750.162,4.01" data-line="nan" stroke-width="45.0" fill="none" stroke="url(&quot;#theme-accent-gradient-linear&quot;) rgb(40, 40, 47)"/><path d="M 203.799,4.044 C 184.176,4.921 168.079,6.918 149.679,11.086 C 134.484,16.121 118.976,22.805 104.3,30.942 C 88.864,41.33 74.197,53.442 63.131,64.578 C 50.74,79.966 40.663,95.435 32.387,111.147 C 26.179,126.122 21.129,143.384 17.964,160.137 L 16.35,177.404" data-line="nan" stroke-width="45.0" fill="none" stroke="url(&quot;#theme-accent-gradient-linear&quot;) rgb(40, 40, 47)"/><path d="M 1007.85,313.613 L 16.156,313.62" data-line="0.0" stroke-width="45.0" fill="none" stroke="url(&quot;#theme-accent-gradient-linear&quot;) rgb(40, 40, 47)"/><path d="M 16.164,323.487 L 16.882,848.908" data-line="1.0" stroke-width="45.0" fill="none" stroke="url(&quot;#theme-accent-gradient-linear&quot;) rgb(40, 40, 47)"/><path d="M 776.63,313.599 L 566.573,4.0" data-line="3.0" stroke-width="45.0" fill="none" stroke="url(&quot;#theme-accent-gradient-linear&quot;) rgb(40, 40, 47)"/><path d="M 414.11,313.576 L 205.232,4.043" data-line="4.0" stroke-width="45.0" fill="none" stroke="url(&quot;#theme-accent-gradient-linear&quot;) rgb(40, 40, 47)"/><path d="M 391.366,492.438 L 409.393,484.047" data-line="8.0" stroke-width="45.0" fill="none" stroke="url(&quot;#theme-accent-gradient-linear&quot;) rgb(40, 40, 47)"/><path d="M 602.725,594.05 L 429.438,490.655" data-line="9.0" stroke-width="45.0" fill="none" stroke="url(&quot;#theme-accent-gradient-linear&quot;) rgb(40, 40, 47)"/><path d="M 601.429,711.45 L 444.962,806.074" data-line="12.0" stroke-width="45.0" fill="none" stroke="url(&quot;#theme-accent-gradient-linear&quot;) rgb(40, 40, 47)"/><path d="M 243.193,1019.993 L 838.632,1018.595" data-line="13.0" stroke-width="45.0" fill="none" stroke="url(&quot;#theme-accent-gradient-linear&quot;) rgb(40, 40, 47)"/><path d="M 1007.837,789.921 L 1007.844,195.145" data-line="15.0" stroke-width="45.0" fill="none" stroke="url(&quot;#theme-accent-gradient-linear&quot;) rgb(40, 40, 47)"/><path d="M 390.229,743.409 L 390.385,506.29" data-line="15.0" stroke-width="45.0" fill="none" stroke="url(&quot;#theme-accent-gradient-linear&quot;) rgb(40, 40, 47)"/><path d="M 750.162,4.01 L 203.799,4.044" data-line="17.0" stroke-width="45.0" fill="none" stroke="url(&quot;#theme-accent-gradient-linear&quot;) rgb(40, 40, 47)"/><path d="M 16.35,177.404 L 16.164,323.487" data-line="21.0" stroke-width="45.0" fill="none" stroke="url(&quot;#theme-accent-gradient-linear&quot;) rgb(40, 40, 47)"/></g></svg>