<svg xmlns="http://www.w3.org/2000/svg" width="1024" height="1024" viewBox="-40.88000011444092 -17.497528076171875 1105.2765502929688 1058.653564453125" class="colorable-icon reset-top-left-margin" data-export-recolorable-svg="true" overflow="visible" xmlns:xlink="http://www.w3.org/1999/xlink" fill="rgb(0, 0, 0)" stroke="none"><g fill="none" stroke="url(&quot;#theme-accent-gradient-linear&quot;) rgb(40, 40, 47)" stroke-width="45" stroke-linecap="round" stroke-linejoin="round"><path d="M 1018.296,452.94 C 1019.876,467.305 1019.742,483.085 1017.976,500.041 C 1015.347,515.301 1012.093,527.876 1007.351,541.057 C 1001.384,553.514 995.552,563.206 987.757,573.541 C 977.576,584.188 969.329,591.03 958.634,598.151 C 944.697,605.03 932.773,609.263 918.788,612.74 L 908.462,613.922" data-line="nan" stroke-width="45.0" fill="none" stroke="url(&quot;#theme-accent-gradient-linear&quot;) rgb(40, 40, 47)"/><path d="M 109.406,614.103 C 91.345,611.99 74.14,606.141 56.552,596.123 L 43.693,585.085" data-line="nan" stroke-width="45.0" fill="none" stroke="url(&quot;#theme-accent-gradient-linear&quot;) rgb(40, 40, 47)"/><path d="M 43.693,585.085 C 36.647,577.293 29.619,567.943 18.214,547.704 C 9.913,524.151 5.035,498.781 4.12,484.149 C 4.212,467.48 7.148,442.634 9.792,430.341 C 13.87,416.788 23.847,392.825 29.699,381.861 C 37.26,369.969 52.791,350.136 71.895,331.39 C 89.538,318.266 113.136,305.126 135.396,296.5 Q 159.343,290.623 188.784,287.157" data-line="nan" stroke-width="45.0" fill="none" stroke="url(&quot;#theme-accent-gradient-linear&quot;) rgb(40, 40, 47)"/><path d="M 59.446,739.48 L 967.079,739.39" data-line="0.0" stroke-width="45.0" fill="none" stroke="url(&quot;#theme-accent-gradient-linear&quot;) rgb(40, 40, 47)"/><path d="M 781.7648123272518,256.3715115918941 A 302.06630800979735,302.06630800979735 0 0,0 189.6107027374996,287.27390538884947" data-line="1.0" stroke-width="45.0" fill="none" stroke="url(&quot;#theme-accent-gradient-linear&quot;) rgb(40, 40, 47)"/><path d="M 783.0370925823495,256.71281933537904 A 218.519650897878,218.519650897878 0 0,1 1018.3938294295549,452.9302970474426" data-line="2.0" stroke-width="45.0" fill="none" stroke="url(&quot;#theme-accent-gradient-linear&quot;) rgb(40, 40, 47)"/><path d="M 134.159,866.124 L 892.019,866.503" data-line="6.0" stroke-width="45.0" fill="none" stroke="url(&quot;#theme-accent-gradient-linear&quot;) rgb(40, 40, 47)"/><path d="M 908.462,613.922 L 109.406,614.103" data-line="6.0" stroke-width="45.0" fill="none" stroke="url(&quot;#theme-accent-gradient-linear&quot;) rgb(40, 40, 47)"/><path d="M 217.758,996.156 L 818.705,995.964" data-line="7.0" stroke-width="45.0" fill="none" stroke="url(&quot;#theme-accent-gradient-linear&quot;) rgb(40, 40, 47)"/></g></svg>