<svg xmlns="http://www.w3.org/2000/svg" viewBox="-41 13.945999145507812 1106 996.1080322265625" width="200px" height="200px" class="colorable-icon reset-top-left-margin" data-export-recolorable-svg="true" overflow="visible" xmlns:xlink="http://www.w3.org/1999/xlink" fill="rgb(0, 0, 0)" stroke="none"><g id="skeleton-paths" stroke-width="45.0" fill="rgb(0, 0, 0)" stroke="none"><path id="path-0-0" d="M4 667.575L5.428 665.110L6.936 662.489L8.803 659.247L10.674 655.970L12.609 652.558L14.676 648.893L16.750 645.190L18.477 642.092L20.325 638.758L22.115 635.521L24.146 631.846L26.104 628.310L27.861 625.143L29.729 621.789L31.729 618.205L34.072 614.016L35.837 610.866L37.221 608.401" stroke="rgb(255, 255, 255)" stroke-width="45" fill="none" stroke-linecap="round" stroke-linejoin="round"/><path id="path-1-0" d="M71.332 623.740L72.203 627.064L73.273 631.068L74.825 636.744L76.457 642.494L78.176 648.281L79.956 654.022L81.773 659.636L83.661 665.199L85.625 670.739L87.737 676.485L89.911 682.190L92.187 687.955L94.509 693.594L96.987 699.394L99.573 705.226L102.292 711.155L105.055 716.962L107.861 722.654L110.747 728.301L113.741 733.968L116.865 739.694L120.064 745.375L123.405 751.109L126.878 756.868L130.435 762.571L134.107 768.270L137.833 773.868L141.792 779.630L145.802 785.284L150.016 791.016L154.290 796.646L158.858 802.440L163.569 808.231L168.495 814.063L173.514 819.816L178.642 825.465L183.978 831.148L189.507 836.800L195.237 842.463L200.967 847.907L206.594 853.072L212.122 857.958L217.611 862.647L223.303 867.350L229.020 871.926L234.861 876.459L240.540 880.711L246.213 884.821L251.835 888.749L257.520 892.587L263.266 896.334L269.071 899.983L274.833 903.487L280.580 906.853L286.174 910.022L291.837 913.120L297.507 916.110L303.311 919.070L309.178 921.938L314.974 924.675L320.764 927.302L326.392 929.766L332.016 932.134L337.574 934.385L343.261 936.589L348.995 938.722L354.829 940.793L360.520 942.734L366.162 944.577L371.762 946.326L377.459 948.021L383.234 949.653L389.041 951.201L394.822 952.663L400.528 954.017L406.163 955.280L411.794 956.458L417.465 957.571L423.218 958.619L428.959 959.588L434.692 960.476L440.387 961.278L446.079 962.003L451.786 962.652L457.504 963.225L463.219 963.720L468.963 964.138L474.682 964.478L480.411 964.740L486.114 964.921L491.821 965.026L497.528 965.054L503.235 965.017L508.943 964.923L514.650 964.780L520.354 964.602L526.087 964.387L531.810 964.132L537.550 963.797L543.225 963.372L548.934 962.840L554.628 962.237L560.395 961.565L566.117 960.832L571.869 959.998L577.550 959.067L583.292 958.043L589.003 956.957L594.753 955.807L600.460 954.568L606.170 953.228L611.925 951.767L617.712 950.223L623.523 948.608L629.303 946.924L635.052 945.145L640.766 943.264L646.453 941.303L652.123 939.286L657.778 937.190L663.503 934.973L669.229 932.628L675.007 930.173L680.718 927.661L686.427 925.077L692.185 922.364L697.863 919.567L703.609 916.625L709.191 913.681L714.879 910.588L720.497 907.426L726.265 904.040L732.047 900.534L737.873 896.898L743.644 893.188L749.353 889.385L754.998 885.472L760.710 881.386L766.444 877.160L772.342 872.670L778.096 868.123L783.948 863.338L789.667 858.505L795.449 853.479L801.114 848.365L806.711 843.126L812.246 837.772L817.693 832.328L823 826.825L828.288 821.130L833.480 815.349L838.540 809.554L843.332 803.860L847.885 798.227L852.362 792.504L856.670 786.823L860.827 781.177L864.865 775.463L868.793 769.721L872.709 763.837L876.390 758.143L879.975 752.383L883.369 746.687L886.692 740.907L889.892 735.177L893 729.441L896.038 723.628L898.929 717.849L901.733 712.046L904.381 706.389L906.912 700.824L909.330 695.265L911.649 689.655L913.936 683.876L916.169 678.019L918.319 672.171L920.383 666.316L922.294 660.612L924.116 654.944L925.852 649.296L927.549 643.575L929.176 637.758L930.694 631.945L932.095 626.154L933.414 620.438L934.332 616.375L935.103 612.922" stroke="rgb(255, 255, 255)" stroke-width="45" fill="none" stroke-linecap="round" stroke-linejoin="round"/><path id="path-2-0" d="M97.355 595.412L99.003 596.342L101.299 597.657L104.752 599.660L109.020 602.184L113.547 604.903L118.036 607.639L121.992 610.082L125.685 612.381L129.197 614.566L132.379 616.542L135.571 618.516L138.250 620.169L141.357 622.067L144.328 623.853L148.014 626.048L150.641 627.596L152.878 628.917" stroke="rgb(255, 255, 255)" stroke-width="45" fill="none" stroke-linecap="round" stroke-linejoin="round"/><path id="path-connection-1" d="M37.221 608.401L57.750 572.872" stroke="rgb(255, 255, 255)" stroke-width="45" fill="none" stroke-linecap="round" stroke-linejoin="round"/><path id="path-connection-2" d="M71.332 623.740L57.750 572.872" stroke="rgb(255, 255, 255)" stroke-width="45" fill="none" stroke-linecap="round" stroke-linejoin="round"/><path id="path-connection-3" d="M97.355 595.412L57.750 572.872" stroke="rgb(255, 255, 255)" stroke-width="45" fill="none" stroke-linecap="round" stroke-linejoin="round"/></g><g id="skeleton-paths" stroke-width="45.0" fill="rgb(0, 0, 0)" stroke="none"><path id="path-0-0" d="M54.451 467.988L54.723 464.578L55.085 460.462L55.623 454.739L56.236 449.012L56.918 443.309L57.673 437.617L58.494 431.972L59.388 426.315L60.360 420.649L61.412 414.937L62.553 409.176L63.758 403.479L65.033 397.810L66.366 392.216L67.780 386.592L69.294 380.897L70.901 375.147L72.611 369.352L74.387 363.603L76.220 357.937L78.074 352.443L80.012 346.947L82.059 341.380L84.258 335.633L86.567 329.833L88.961 324.063L91.440 318.324L93.983 312.652L96.648 306.947L99.437 301.186L102.323 295.435L105.255 289.796L108.255 284.231L111.367 278.670L114.605 273.070L117.989 267.421L121.552 261.694L125.366 255.765L129.288 249.893L133.284 244.103L137.275 238.537L141.434 232.947L145.720 227.376L150.307 221.648L155.044 215.925L160.117 210.053L165.279 204.279L170.595 198.572L175.871 193.090L181.205 187.719L186.614 182.422L192.136 177.185L197.894 171.923L203.689 166.817L209.472 161.900L215.139 157.254L220.792 152.789L226.530 148.411L232.199 144.227L237.873 140.190L243.503 136.318L249.216 132.522L254.986 128.811L260.780 125.217L266.511 121.783L272.183 118.499L277.736 115.389L283.388 112.339L288.963 109.428L294.619 106.567L300.207 103.844L305.857 101.188L311.542 98.613L317.156 96.152L322.760 93.788L328.417 91.504L334.160 89.266L340.015 87.071L345.765 84.996L351.510 83.023L357.198 81.147L362.899 79.353L368.555 77.644L374.180 76.039L379.827 74.494L385.540 73.008L391.258 71.586L396.957 70.263L402.597 69.028L408.271 67.854L413.925 66.755L419.605 65.727L425.259 64.788L430.929 63.904L436.650 63.083L442.365 62.330L448.223 61.648L453.990 61.044L459.333 60.527L463.881 60.128L467.355 59.867L470.503 59.680L473.188 59.545L476.210 59.395L478.895 59.269L481.918 59.146L484.603 59.063L487.625 58.996L490.310 58.962L493.332 58.946L496.017 58.950L499.039 58.978L501.724 59.020L504.746 59.090L507.431 59.163L510.454 59.252L513.139 59.333L516.161 59.445L518.846 59.575L521.902 59.760L524.581 59.947L527.741 60.182L530.912 60.429L534.617 60.726L538.335 61.052L541.603 61.365L544.892 61.727L548.113 62.120L551.828 62.587L555.668 63.086L559.447 63.603L563.266 64.155L566.919 64.724L570.113 65.245L573.263 65.795L575.973 66.285L579.028 66.850L581.639 67.346L584.573 67.916L587.250 68.456L590.369 69.110L593.161 69.722L596.373 70.456L599.505 71.205L603.149 72.096L606.822 73.014L610.112 73.843L613.391 74.689L616.023 75.389L619.196 76.268L621.756 77.004L624.966 77.945L627.513 78.705L630.724 79.676L633.226 80.448L636.400 81.462L638.885 82.285L642.104 83.376L644.641 84.250L647.846 85.367L650.349 86.254L653.402 87.362L655.916 88.302L659.093 89.520L662.485 90.854L666.859 92.615L671.238 94.412L675.476 96.202L678.693 97.594L681.919 99.031L685.244 100.550L689.434 102.504L693.732 104.559L697.901 106.599L701.369 108.333L704.726 110.053L708.051 111.801L711.710 113.760L715.355 115.758L718.643 117.585L721.925 119.449L725.166 121.337L728.728 123.452L732.272 125.601L735.469 127.566L738.577 129.512L741.347 131.280L744.338 133.228L747.081 135.049L750.040 137.042L752.758 138.897L755.686 140.925L758.368 142.817L761.372 144.983L764.215 147.068L767.389 149.431L770.202 151.557L773.257 153.911L776.032 156.096L779.124 158.566L781.857 160.786L784.828 163.235L787.531 165.507L790.539 168.080L793.195 170.394L796.075 172.950L798.706 175.320L801.750 178.108L804.529 180.698L807.629 183.644L810.355 186.287L813.399 189.288L816.078 191.979L819.067 195.034L821.701 197.770L824.644 200.872L827.237 203.648L830.025 206.690L832.389 209.325L834.938 212.212L837.248 214.870L839.824 217.875L842.094 220.580L844.537 223.557L846.746 226.299L849.213 229.398L851.399 232.182L853.667 235.134L855.645 237.771L857.765 240.643L859.706 243.301L861.793 246.196L863.693 248.883L865.715 251.809L867.552 254.520L869.641 257.657L871.927 261.172L874.709 265.539L877.516 270.045L880.106 274.286L882.153 277.715L884.052 280.979L885.906 284.255L887.923 287.892L889.935 291.601L891.689 294.874L893.403 298.125L894.740 300.694L896.231 303.620L897.432 306.028L898.884 308.984L900.176 311.661L901.726 314.931L903.081 317.849L904.577 321.139L905.732 323.731L907.023 326.682L908.063 329.124L909.345 332.177L910.424 334.815L911.623 337.770L912.615 340.271L913.814 343.350L914.900 346.205L916.165 349.611L917.154 352.335L918.287 355.528L919.166 358.048L920.252 361.229L921.092 363.754L922.123 366.933L922.924 369.471L923.902 372.625L924.676 375.173L925.594 378.257L926.301 380.695L927.146 383.674L927.808 386.068L928.661 389.224L929.323 391.735L930.161 395.001L930.803 397.588L931.599 400.870L932.200 403.408L932.912 406.499L933.453 408.920L934.145 412.119L934.696 414.743L935.375 418.064L935.895 420.690L936.505 423.869L936.984 426.461L937.536 429.544L937.980 432.114L938.489 435.152L938.924 437.828L939.409 440.918L939.812 443.591L940.240 446.612L940.592 449.230L940.980 452.259L941.297 454.792L941.654 457.808L941.945 460.360L942.275 463.497L942.554 466.199L942.779 468.462L942.937 469.994" stroke="rgb(255, 255, 255)" stroke-width="45" fill="none" stroke-linecap="round" stroke-linejoin="round"/><path id="path-1-0" d="M860.706 452.246L862.953 453.658L866.256 455.735L871.275 458.924L876.852 462.519L882.510 466.226L887.663 469.644L892.232 472.699L896.206 475.372L900.007 477.936L903.717 480.441L906.998 482.654L910.192 484.805L912.195 486.153L914.194 487.497" stroke="rgb(255, 255, 255)" stroke-width="45" fill="none" stroke-linecap="round" stroke-linejoin="round"/><path id="path-2-0" d="M977.198 479.573L980.134 475.911L983.479 471.651L988.172 465.585L992.725 459.553L997.088 453.685L1001.269 448.026L1005.431 442.428L1009.671 436.805L1014.102 431.070L1017.273 427.014L1020 423.610" stroke="rgb(255, 255, 255)" stroke-width="45" fill="none" stroke-linecap="round" stroke-linejoin="round"/><path id="path-extension-1" d="M942.937 469.994L947.030 509.566" stroke="rgb(255, 255, 255)" stroke-width="45" fill="none" stroke-linecap="round" stroke-linejoin="round"/><path id="path-extension-2" d="M914.194 487.497L947.030 509.566" stroke="rgb(255, 255, 255)" stroke-width="45" fill="none" stroke-linecap="round" stroke-linejoin="round"/><path id="path-extension-3" d="M977.198 479.573L951.003 512.236" stroke="rgb(255, 255, 255)" stroke-width="45" fill="none" stroke-linecap="round" stroke-linejoin="round"/><path id="path-connection-1" d="M947.030 509.566L947.030 509.566" stroke="rgb(255, 255, 255)" stroke-width="45" fill="none" stroke-linecap="round" stroke-linejoin="round"/></g></svg>