<svg xmlns="http://www.w3.org/2000/svg" width="1024" height="1024" viewBox="-32.7790002822876 -41 1089.7258911132812 1106" class="colorable-icon reset-top-left-margin" data-export-recolorable-svg="true" overflow="visible" xmlns:xlink="http://www.w3.org/1999/xlink" fill="rgb(0, 0, 0)" stroke="none"><g fill="none" stroke="rgb(255, 255, 255)" stroke-width="45" stroke-linecap="round" stroke-linejoin="round"><path d="M 287.921,424.979 C 282.371,388.563 275.776,367.747 265.387,346.337 C 257.168,334.092 249.464,324.85 238.755,314.543 C 228.202,306.39 218.786,300.153 204.875,292.785 C 191.574,287.441 177.964,283.488 164.802,281.175 C 153.704,280.333 139.983,280.495 127.356,281.99 C 114.441,284.857 102.562,288.805 90.959,293.85 C 77.721,301.131 64.711,310.068 54.519,318.925 C 46.707,327.193 36.866,339.835 28.476,353.206 C 21.774,366.923 17.942,377.445 14.789,389.824 Q 12.893,402.7 12.221,418.275" data-line="nan" stroke-width="45.0" fill="none" stroke="rgb(255, 255, 255)"/><path d="M 1003.006,367.904 C 995.075,349.712 988.447,338.914 980.68,328.604 C 972.772,320.093 964.234,312.488 952.975,304.299 C 942.158,297.744 931.442,292.255 921.383,288.299 C 908.734,284.569 896.762,282.087 883.638,280.532 C 872.495,280.174 861.002,280.771 848.769,282.688 C 827.128,289.378 805.668,300.25 792.757,309.045 C 784.325,316.099 768.8,332.815 757.245,350.053 C 752.807,358.539 747.441,371.604 742.736,387.952 L 736.014,422.4" data-line="nan" stroke-width="45.0" fill="none" stroke="rgb(255, 255, 255)"/><path d="M 815.857,693.996 L 209.89,693.832" data-line="0.0" stroke-width="45.0" fill="none" stroke="rgb(255, 255, 255)"/><path d="M 876.4425861403205,761.4813591538613 A 148.5858179119876,148.5858179119876 0 0,1 757.5752960965496,693.0841339094715" data-line="1.0" stroke-width="45.0" fill="none" stroke="rgb(255, 255, 255)"/><path d="M 876.434,1019.89 L 876.374,524.55" data-line="2.0" stroke-width="45.0" fill="none" stroke="rgb(255, 255, 255)"/><path d="M 520.105,1019.975 L 979.304,1020.0" data-line="3.0" stroke-width="45.0" fill="none" stroke="rgb(255, 255, 255)"/><path d="M 512.44,1019.978 L 511.568,693.963" data-line="4.0" stroke-width="45.0" fill="none" stroke="rgb(255, 255, 255)"/><path d="M 520.105,1019.975 L 44.441,1019.674" data-line="6.0" stroke-width="45.0" fill="none" stroke="rgb(255, 255, 255)"/><path d="M 148.403,1019.708 L 148.443,524.55" data-line="7.0" stroke-width="45.0" fill="none" stroke="rgb(255, 255, 255)"/><path d="M 267.1114179775984,693.4461935623993 A 174.80462840922272,174.80462840922272 0 0,1 150.85518613299777,762.8808631159433" data-line="8.0" stroke-width="45.0" fill="none" stroke="rgb(255, 255, 255)"/><path d="M 877.01365069288,760.9387070562066 A 139.9589068150507,139.9589068150507 0 0,0 1011.9452307521111,620.4072221988541" data-line="9.0" stroke-width="45.0" fill="none" stroke="rgb(255, 255, 255)"/><path d="M 815.857,693.996 L 634.014,469.69" data-line="10.0" stroke-width="45.0" fill="none" stroke="rgb(255, 255, 255)"/><path d="M 773.278,469.045 L 634.014,469.69" data-line="11.0" stroke-width="45.0" fill="none" stroke="rgb(255, 255, 255)"/><path d="M 773.278,469.045 L 596.875,254.236" data-line="12.0" stroke-width="45.0" fill="none" stroke="rgb(255, 255, 255)"/><path d="M 425.849,254.121 L 252.672,469.124" data-line="14.0" stroke-width="45.0" fill="none" stroke="rgb(255, 255, 255)"/><path d="M 392.432,470.036 L 252.672,469.124" data-line="15.0" stroke-width="45.0" fill="none" stroke="rgb(255, 255, 255)"/><path d="M 392.432,470.036 L 209.89,693.832" data-line="16.0" stroke-width="45.0" fill="none" stroke="rgb(255, 255, 255)"/><path d="M 713.398,253.669 L 512.258,4.0" data-line="19.0" stroke-width="45.0" fill="none" stroke="rgb(255, 255, 255)"/><path d="M 713.398,253.669 L 596.875,254.236" data-line="20.0" stroke-width="45.0" fill="none" stroke="rgb(255, 255, 255)"/><path d="M 425.849,254.121 L 311.292,254.06" data-line="22.0" stroke-width="45.0" fill="none" stroke="rgb(255, 255, 255)"/><path d="M 512.258,4.0 L 311.292,254.06" data-line="23.0" stroke-width="45.0" fill="none" stroke="rgb(255, 255, 255)"/><path d="M 1011.781,620.408 L 1003.006,367.904" data-line="24.0" stroke-width="45.0" fill="none" stroke="rgb(255, 255, 255)"/><path d="M 12.221,418.275 L 20.65,669.253" data-line="26.0" stroke-width="45.0" fill="none" stroke="rgb(255, 255, 255)"/><path d="M 20.86111141226459,669.1789301539234 A 137.94099535345123,137.94099535345123 0 0,0 148.64619519846747,761.4312563324302" data-line="27.0" stroke-width="45.0" fill="none" stroke="rgb(255, 255, 255)"/></g></svg>